<svg width="26" height="41" viewBox="0 0 26 41" fill="none" xmlns="http://www.w3.org/2000/svg">
<path d="M2.40412 16.9836C3.63921 22.5618 12.9152 37.9831 12.9152 37.9831C12.9152 37.9831 22.2694 21.705 23.4262 16.9836C24.5829 12.2622 22.8581 8.57453 20.6601 6.28369C18.4621 3.99284 15.1132 2 12.9152 2C10.7172 2 7.38307 4.14185 5.17021 6.28369C2.95735 8.42552 1.16903 11.4055 2.40412 16.9836Z" stroke="white" stroke-width="3"/>
<path d="M17.2617 14.3941C17.2617 16.3701 15.5612 18.0916 13.3125 18.0916C11.0638 18.0916 9.36328 16.3701 9.36328 14.3941C9.36328 12.418 11.0638 10.6965 13.3125 10.6965C15.5612 10.6965 17.2617 12.418 17.2617 14.3941Z" stroke="white" stroke-width="3"/>
</svg>
